<svg width="80" height="80" viewBox="0 0 80 80" fill="none" xmlns="http://www.w3.org/2000/svg">
<path d="M49.4034 39.9935C49.4064 36.4489 48.6032 32.95 47.0543 29.7616C45.5054 26.5731 43.2515 23.7788 40.4631 21.59L40 21.2265L39.5369 21.59C36.749 23.7784 34.4953 26.5722 32.9465 29.7601C31.3976 32.9478 30.5941 36.446 30.5967 39.99M49.4034 39.9935C49.4054 43.537 48.6016 47.0344 47.0528 50.2215C45.504 53.4087 43.2506 56.2019 40.4631 58.39L40 58.7535L39.5369 58.39C36.749 56.2016 34.4953 53.4078 32.9465 50.2199C31.3976 47.0322 30.5941 43.534 30.5967 39.99M49.4034 39.9935C49.4034 39.9933 49.4034 39.9931 49.4034 39.9929L48.6534 39.9933L49.4034 39.994C49.4034 39.9938 49.4034 39.9937 49.4034 39.9935ZM30.5967 39.99C30.5967 39.9902 30.5967 39.9904 30.5967 39.9906L31.3467 39.99L30.5967 39.9894C30.5967 39.9896 30.5967 39.9898 30.5967 39.99ZM31.06 29.4338C32.5474 26.204 34.7013 23.3266 37.3789 20.99H39.9686L37.4708 19.5862C33.909 17.5843 29.8852 16.5495 25.7995 16.5847C21.7138 16.6199 17.7084 17.7238 14.1816 19.7867C10.6547 21.8496 7.72923 24.7997 5.69586 28.3437C3.6625 31.8876 2.5921 35.9021 2.59107 39.9879C2.59003 44.0738 3.6584 48.0888 5.68997 51.6338C7.72154 55.1788 10.6456 58.1303 14.1714 60.195C17.6972 62.2597 21.702 63.3656 25.7876 63.4029C29.8733 63.4401 33.8976 62.4074 37.4605 60.4073L38.3978 59.8812L37.5805 59.1831C34.8082 56.8151 32.583 53.8736 31.0584 50.5618C29.5338 47.2499 28.7462 43.6467 28.75 40.0008L28.75 39.9992C28.7461 36.3517 29.5343 32.7469 31.06 29.4338ZM42.4196 59.1831L40.8739 60.5033H42.7156C46.2356 62.4404 50.1959 63.4395 54.2157 63.4029C58.3014 63.3656 62.3062 62.2597 65.832 60.195C69.3578 58.1303 72.2818 55.1788 74.3134 51.6338C76.345 48.0888 77.4133 44.0738 77.4123 39.9879C77.4113 35.9021 76.3409 31.8876 74.3075 28.3437C72.2741 24.7997 69.3486 21.8496 65.8218 19.7867C62.2949 17.7238 58.2896 16.6199 54.2039 16.5847C50.1182 16.5495 46.0944 17.5843 42.5326 19.5862L41.5957 20.1127L42.4131 20.8104C45.1873 23.1785 47.4143 26.1208 48.94 29.4338C50.4658 32.7469 51.2539 36.3517 51.25 39.9992V40.0008C51.2538 43.6467 50.4662 47.2499 48.9416 50.5618C47.417 53.8736 45.1918 56.8151 42.4196 59.1831Z" fill="white" fill-opacity="0.2" stroke="white" stroke-width="1.5"/>
</svg>
