<svg width="17" height="21" viewBox="0 0 17 21" fill="none" xmlns="http://www.w3.org/2000/svg">
<g opacity="0.8">
<path d="M7.402 2.32593C8.34915 3.36489 9.10047 4.59836 9.61307 5.9559C10.1257 7.31344 10.3895 8.76847 10.3895 10.2379C10.3895 11.7073 10.1257 13.1623 9.61307 14.5199C9.10047 15.8774 8.34915 17.1109 7.402 18.1498L5.88301 16.4834C7.3927 14.8269 8.24083 12.5804 8.24083 10.2379C8.24083 7.89542 7.3927 5.64888 5.88301 3.99241L7.402 2.32593ZM1.85099 5.65795C2.95818 6.87271 3.58019 8.52024 3.58019 10.2381C3.58019 11.956 2.95818 13.6035 1.85099 14.8183L0.333069 13.153C0.682 12.7702 0.958789 12.3158 1.14763 11.8157C1.33647 11.3155 1.43367 10.7795 1.43367 10.2381C1.43367 9.69678 1.33647 9.16073 1.14763 8.66059C0.958789 8.16046 0.682 7.70603 0.333069 7.32326L1.85099 5.65795Z" fill="white"/>
<path d="M13.8969 0C14.7776 1.31398 15.4762 2.87396 15.9528 4.59086C16.4294 6.30775 16.6747 8.14794 16.6747 10.0063C16.6747 11.8647 16.4294 13.7049 15.9528 15.4218C15.4762 17.1387 14.7776 18.6987 13.8969 20.0126L12.4846 17.905C13.8883 15.8101 14.6769 12.9689 14.6769 10.0063C14.6769 7.04378 13.8883 4.20256 12.4846 2.10761L13.8969 0Z" fill="white"/>
</g>
</svg>
