<svg width="186" height="48" viewBox="0 0 186 48" fill="none" xmlns="http://www.w3.org/2000/svg">
<path d="M0 35.3333L3.525e-06 13.1111L11.1111 19.2839V29.2221L20 34.2222L28.8888 29.2221V19.2839L40 13.1111V35.3333L20 46.4443L0 35.3333Z" fill="#192657"/>
<path fill-rule="evenodd" clip-rule="evenodd" d="M5.55556 16.1976L0 13.1111L20 2L40 13.1111L34.4444 16.1976V32.5555L20 40.8889L5.55555 32.5555L5.55556 16.1976ZM33.8426 16.5319L28.8888 19.2839V19.2222L20 14.2222L11.1111 19.2222V19.2839L6.1574 16.5319V32.2137L20 40.1998L33.8426 32.2137V16.5319Z" fill="url(#paint0_linear_33_25)"/>
<path d="M69.88 23.544C71.1387 23.7787 72.1733 24.408 72.984 25.432C73.7947 26.456 74.2 27.6293 74.2 28.952C74.2 30.1467 73.9013 31.2027 73.304 32.12C72.728 33.016 71.8853 33.72 70.776 34.232C69.6667 34.744 68.3547 35 66.84 35H57.208V12.664H66.424C67.9387 12.664 69.24 12.9093 70.328 13.4C71.4373 13.8907 72.2693 14.5733 72.824 15.448C73.4 16.3227 73.688 17.3147 73.688 18.424C73.688 19.7253 73.336 20.8133 72.632 21.688C71.9493 22.5627 71.032 23.1813 69.88 23.544ZM61.688 21.88H65.784C66.8507 21.88 67.672 21.6453 68.248 21.176C68.824 20.6853 69.112 19.992 69.112 19.096C69.112 18.2 68.824 17.5067 68.248 17.016C67.672 16.5253 66.8507 16.28 65.784 16.28H61.688V21.88ZM66.2 31.352C67.288 31.352 68.1307 31.096 68.728 30.584C69.3467 30.072 69.656 29.3467 69.656 28.408C69.656 27.448 69.336 26.7013 68.696 26.168C68.056 25.6133 67.192 25.336 66.104 25.336H61.688V31.352H66.2ZM76.6185 26.072C76.6185 24.28 76.9705 22.6907 77.6745 21.304C78.3998 19.9173 79.3705 18.8507 80.5865 18.104C81.8238 17.3573 83.1998 16.984 84.7145 16.984C86.0372 16.984 87.1892 17.2507 88.1705 17.784C89.1732 18.3173 89.9732 18.9893 90.5705 19.8V17.272H95.0825V35H90.5705V32.408C89.9945 33.24 89.1945 33.9333 88.1705 34.488C87.1678 35.0213 86.0052 35.288 84.6825 35.288C83.1892 35.288 81.8238 34.904 80.5865 34.136C79.3705 33.368 78.3998 32.2907 77.6745 30.904C76.9705 29.496 76.6185 27.8853 76.6185 26.072ZM90.5705 26.136C90.5705 25.048 90.3572 24.12 89.9305 23.352C89.5038 22.5627 88.9278 21.9653 88.2025 21.56C87.4772 21.1333 86.6985 20.92 85.8665 20.92C85.0345 20.92 84.2665 21.1227 83.5625 21.528C82.8585 21.9333 82.2825 22.5307 81.8345 23.32C81.4078 24.088 81.1945 25.0053 81.1945 26.072C81.1945 27.1387 81.4078 28.0773 81.8345 28.888C82.2825 29.6773 82.8585 30.2853 83.5625 30.712C84.2878 31.1387 85.0558 31.352 85.8665 31.352C86.6985 31.352 87.4772 31.1493 88.2025 30.744C88.9278 30.3173 89.5038 29.72 89.9305 28.952C90.3572 28.1627 90.5705 27.224 90.5705 26.136ZM109.282 17.016C111.394 17.016 113.101 17.688 114.402 19.032C115.703 20.3547 116.354 22.2107 116.354 24.6V35H111.874V25.208C111.874 23.8 111.522 22.7227 110.818 21.976C110.114 21.208 109.154 20.824 107.938 20.824C106.701 20.824 105.719 21.208 104.994 21.976C104.29 22.7227 103.938 23.8 103.938 25.208V35H99.458V17.272H103.938V19.48C104.535 18.712 105.293 18.1147 106.21 17.688C107.149 17.24 108.173 17.016 109.282 17.016ZM131.11 35L125.094 27.448V35H120.614V11.32H125.094V24.792L131.046 17.272H136.87L129.062 26.168L136.934 35H131.11Z" fill="white"/>
<path d="M163.654 12.664V35H159.174V20.472L153.19 35H149.798L143.782 20.472V35H139.302V12.664H144.39L151.494 29.272L158.598 12.664H163.654ZM184.563 25.752C184.563 26.392 184.52 26.968 184.435 27.48H171.475C171.582 28.76 172.03 29.7627 172.819 30.488C173.608 31.2133 174.579 31.576 175.731 31.576C177.395 31.576 178.579 30.8613 179.283 29.432H184.115C183.603 31.1387 182.622 32.5467 181.171 33.656C179.72 34.744 177.939 35.288 175.827 35.288C174.12 35.288 172.584 34.9147 171.219 34.168C169.875 33.4 168.819 32.3227 168.051 30.936C167.304 29.5493 166.931 27.9493 166.931 26.136C166.931 24.3013 167.304 22.6907 168.051 21.304C168.798 19.9173 169.843 18.8507 171.187 18.104C172.531 17.3573 174.078 16.984 175.827 16.984C177.512 16.984 179.016 17.3467 180.339 18.072C181.683 18.7973 182.718 19.832 183.443 21.176C184.19 22.4987 184.563 24.024 184.563 25.752ZM179.923 24.472C179.902 23.32 179.486 22.4027 178.675 21.72C177.864 21.016 176.872 20.664 175.699 20.664C174.59 20.664 173.651 21.0053 172.883 21.688C172.136 22.3493 171.678 23.2773 171.507 24.472H179.923Z" fill="#FFA31A"/>
<defs>
<linearGradient id="paint0_linear_33_25" x1="5.55555" y1="10.6419" x2="35.5555" y2="10.642" gradientUnits="userSpaceOnUse">
<stop stop-color="#64C2DB"/>
<stop offset="0.307292" stop-color="#7476ED"/>
<stop offset="0.604167" stop-color="#C994DF"/>
<stop offset="1" stop-color="#E56F8C"/>
</linearGradient>
</defs>
</svg>
