<svg width="40" height="40" viewBox="0 0 40 40" fill="none" xmlns="http://www.w3.org/2000/svg">
<rect width="40" height="40" rx="20" fill="#F0689C"/>
<path d="M30.3125 20.7125V19.2781L32.1125 17.7031C32.4443 17.4106 32.662 17.0103 32.7272 16.5728C32.7924 16.1354 32.7009 15.6889 32.4687 15.3125L30.2562 11.5625C30.0918 11.2777 29.8554 11.0412 29.5708 10.8766C29.2861 10.7121 28.9632 10.6253 28.6344 10.625C28.4306 10.6234 28.2279 10.6551 28.0344 10.7187L25.7562 11.4875C25.3629 11.2261 24.9526 10.9912 24.5281 10.7843L24.05 8.42183C23.9643 7.99021 23.7295 7.60249 23.3867 7.32655C23.0439 7.05061 22.615 6.90402 22.175 6.91245H17.7875C17.3475 6.90402 16.9186 7.05061 16.5758 7.32655C16.233 7.60249 15.9982 7.99021 15.9125 8.42183L15.4344 10.7843C15.0068 10.9911 14.5934 11.226 14.1969 11.4875L11.9656 10.6812C11.77 10.6302 11.5673 10.6112 11.3656 10.625C11.0368 10.6253 10.7139 10.7121 10.4292 10.8766C10.1445 11.0412 9.90814 11.2777 9.74374 11.5625L7.53124 15.3125C7.31242 15.6884 7.2311 16.1287 7.30123 16.558C7.37135 16.9873 7.58855 17.3788 7.91562 17.6656L9.68749 19.2875V20.7218L7.91562 22.2968C7.57931 22.5856 7.35617 22.9841 7.2858 23.4218C7.21544 23.8594 7.30239 24.3078 7.53124 24.6875L9.74374 28.4375C9.90814 28.7222 10.1445 28.9587 10.4292 29.1233C10.7139 29.2878 11.0368 29.3746 11.3656 29.375C11.5694 29.3765 11.772 29.3449 11.9656 29.2812L14.2437 28.5125C14.6371 28.7738 15.0473 29.0087 15.4719 29.2156L15.95 31.5781C16.0357 32.0097 16.2705 32.3974 16.6133 32.6734C16.9561 32.9493 17.385 33.0959 17.825 33.0875H22.25C22.69 33.0959 23.1189 32.9493 23.4617 32.6734C23.8045 32.3974 24.0393 32.0097 24.125 31.5781L24.6031 29.2156C25.0307 29.0088 25.4441 28.7739 25.8406 28.5125L28.1094 29.2812C28.3029 29.3449 28.5056 29.3765 28.7094 29.375C29.0382 29.3746 29.3611 29.2878 29.6458 29.1233C29.9304 28.9587 30.1668 28.7222 30.3312 28.4375L32.4687 24.6875C32.6876 24.3115 32.7689 23.8712 32.6988 23.4419C32.6286 23.0126 32.4114 22.6211 32.0844 22.3343L30.3125 20.7125ZM28.6344 27.5L25.4187 26.4125C24.666 27.0501 23.8057 27.5485 22.8781 27.8843L22.2125 31.25H17.7875L17.1219 27.9218C16.2016 27.5764 15.346 27.0789 14.5906 26.45L11.3656 27.5L9.15312 23.75L11.7031 21.5C11.5298 20.5295 11.5298 19.536 11.7031 18.5656L9.15312 16.25L11.3656 12.5L14.5812 13.5875C15.334 12.9499 16.1943 12.4514 17.1219 12.1156L17.7875 8.74995H22.2125L22.8781 12.0781C23.7983 12.4235 24.654 12.921 25.4094 13.55L28.6344 12.5L30.8469 16.25L28.2969 18.5C28.4702 19.4704 28.4702 20.4639 28.2969 21.4343L30.8469 23.75L28.6344 27.5Z" fill="white"/>
<path d="M20 25.625C18.8875 25.625 17.7999 25.2951 16.8749 24.677C15.9499 24.0589 15.2289 23.1804 14.8032 22.1526C14.3774 21.1248 14.266 19.9938 14.4831 18.9026C14.7001 17.8115 15.2359 16.8092 16.0225 16.0225C16.8092 15.2359 17.8115 14.7001 18.9026 14.4831C19.9938 14.266 21.1248 14.3774 22.1526 14.8032C23.1804 15.2289 24.0589 15.9499 24.677 16.8749C25.2951 17.7999 25.625 18.8875 25.625 20C25.6325 20.7408 25.4922 21.4756 25.2121 22.1615C24.9321 22.8473 24.5181 23.4704 23.9942 23.9942C23.4704 24.5181 22.8473 24.9321 22.1615 25.2121C21.4756 25.4922 20.7408 25.6325 20 25.625ZM20 16.25C19.5044 16.2385 19.0116 16.3276 18.5514 16.5119C18.0912 16.6963 17.6732 16.9721 17.3226 17.3226C16.9721 17.6732 16.6963 18.0912 16.5119 18.5514C16.3276 19.0116 16.2385 19.5044 16.25 20C16.2385 20.4956 16.3276 20.9884 16.5119 21.4486C16.6963 21.9088 16.9721 22.3268 17.3226 22.6774C17.6732 23.0279 18.0912 23.3037 18.5514 23.4881C19.0116 23.6724 19.5044 23.7615 20 23.75C20.4956 23.7615 20.9884 23.6724 21.4486 23.4881C21.9088 23.3037 22.3268 23.0279 22.6774 22.6774C23.0279 22.3268 23.3037 21.9088 23.4881 21.4486C23.6724 20.9884 23.7615 20.4956 23.75 20C23.7615 19.5044 23.6724 19.0116 23.4881 18.5514C23.3037 18.0912 23.0279 17.6732 22.6774 17.3226C22.3268 16.9721 21.9088 16.6963 21.4486 16.5119C20.9884 16.3276 20.4956 16.2385 20 16.25Z" fill="white"/>
</svg>
